_________________________  Visit us at _________________________
  
http://p2pdl.com  ____________________________  http://p2pdl.com


Vehicle 19 2013 BRRip 480p x264 AAC - VYTO


Genre: Thriller
Plot: A foreign traveler (Walker) unknowingly picks up a rental car that will tie him to a web of
corrupt local police.   
Director: Mukunda Michael Dewil
Stars: Paul Walker, Naima McLean, Gys de Villiers.
Rated: R for brief strong language.


Info: 
http://www.imdb.com/title/tt1911662/

Trailer:


Format                         : MPEG-4
File size                      : 277 MiB
Duration                       : 1h 25mn
Overall bit rate               : 454 Kbps
Source                         : 720p BluRay DTS x264-HDWinG

Video
Format                         : AVC
Bit rate                       : 411 Kbps
Width                          : 720 pixels
Height                         : 304 pixels
Display aspect ratio           : 2.35:1
Frame rate mode                : Constant
Frame rate                     : 23.976 fps
Stream size                    : 250 MiB (90%)
Writing library                : x264 core 130 r2273

Audio
Format                         : AAC
Bit rate mode                  : Variable
Bit rate                       : 40.0 Kbps
Channel(s)                     : 2 channels
Channel positions              : Front: L R
Sampling rate                  : 44.1 KHz
Stream size                    : 24.4 MiB (9%)
Language                       : English

Subtitle                       : N/a

 
http://ultraimg.com/images/h7Sym.png 
http://ultraimg.com/images/4lVwf.png 
http://ultraimg.com/images/AhJc.png 
http://ultraimg.com/images/Vqtjx.png 
http://ultraimg.com/images/qkHzy.png 
http://ultraimg.com/images/RgpUH.png 
http://ultraimg.com/images/hkUVa.png


----------------------------------------------------------------------------------------------------


Encoded using revolutionary 10bit encoding, which enables us to provide you more crispier 
and sharper images at small sizes, just make sure you follow our instructions without a fault.
Recommend to you to use latest version of VLC player. Install K-Lite Codec Pack or shark007 codecs
in case of any kind of problem in playback (For non-VLC Media Player users). Alternatively, install
Core AVC codecs, the fastest decoder that there is coupled with Community Center Codec Pack and play
on Windows Media Player Classic. Check sample to be sure.
Enjoy!

Encoder Notes:Looking For Early Access To Anything You Can Provide DVDScr, R5, DVDR, BluRay, Direct
Audio, Music Releases and Seedboxes. We require dedicated servers, so as to do more 
and fast releases of movies.
If You Got anything to offer please contact us at "contact@p2pdl.com".

Face book Fan Page:   
http://www.fb.me/p2pdl